UNKNOWN
version=1
nRows=34
nColumns=19
inDegrees=no
endheader
time	rF_x	rF_y	rF_z	rCOP_x	rCOP_y	rCOP_z	lF_x	lF_y	lF_z	lCOP_x	lCOP_y	lCOP_z	rT_x	rT_y	rT_z	lT_x	lT_y	lT_z
      6.11800000	      0.00000000	      0.00000000	      0.00000000	      0.97890200	      0.01150000	     -0.46585800	    158.55846500	   1021.73853000	     31.68793600	      1.04445700	      0.01150000	     -0.54634500	      0.00000000	      0.00000000	      0.00000000	      0.00000000	      0.82522400	      0.00000000
      6.11850000	      0.00000000	      0.00000000	      0.00000000	      0.98013900	      0.01150000	     -0.46594300	    159.07318600	   1011.68542600	     31.32204100	      1.04328000	      0.01150000	     -0.54622700	      0.00000000	      0.00000000	      0.00000000	      0.00000000	      0.79625200	      0.00000000
      6.11900000	      0.00000000	      0.00000000	      0.00000000	      0.98137600	      0.01150000	     -0.46602700	    159.54589200	   1001.62245800	     30.95882100	      1.04210400	      0.01150000	     -0.54610800	      0.00000000	      0.00000000	      0.00000000	      0.00000000	      0.76656500	      0.00000000
      6.11950000	      0.00000000	      0.00000000	      0.00000000	      0.98261200	      0.01150000	     -0.46611100	    159.97686400	    991.55151200	     30.59836400	      1.04093100	      0.01150000	     -0.54598700	      0.00000000	      0.00000000	      0.00000000	      0.00000000	      0.73625900	      0.00000000
      6.12000000	      0.00000000	      0.00000000	      0.00000000	      0.98384900	      0.01150000	     -0.46619600	    160.36638300	    981.47445500	     30.24076600	      1.03976000	      0.01150000	     -0.54586600	      0.00000000	      0.00000000	      0.00000000	      0.00000000	      0.70543800	      0.00000000
      6.12050000	      0.00000000	      0.00000000	      0.00000000	      0.98518000	      0.01150000	     -0.46628700	    160.71474300	    971.39316900	     29.88613900	      1.03859200	      0.01150000	     -0.54574300	      0.00000000	      0.00000000	      0.00000000	      0.00000000	      0.67420800	      0.00000000
      6.12100000	      0.00000000	      0.00000000	      0.00000000	      0.98651200	      0.01150000	     -0.46637900	    161.02226700	    961.30956700	     29.53460700	      1.03742500	      0.01150000	     -0.54562000	      0.00000000	      0.00000000	      0.00000000	      0.00000000	      0.64266700	      0.00000000
      6.12150000	      0.00000000	      0.00000000	      0.00000000	      0.98784300	      0.01150000	     -0.46647100	    161.28931700	    951.22561100	     29.18630800	      1.03626100	      0.01150000	     -0.54549700	      0.00000000	      0.00000000	      0.00000000	      0.00000000	      0.61090300	      0.00000000
      6.12200000	      0.00000000	      0.00000000	      0.00000000	      0.98917500	      0.01150000	     -0.46656300	    161.51629600	    941.14332400	     28.84139200	      1.03509900	      0.01150000	     -0.54537200	      0.00000000	      0.00000000	      0.00000000	      0.00000000	      0.57900300	      0.00000000
      6.12250000	      0.00000000	      0.00000000	      0.00000000	      0.99050600	      0.01150000	     -0.46665400	    161.70363800	    931.06479400	     28.50002100	      1.03393900	      0.01150000	     -0.54524800	      0.00000000	      0.00000000	      0.00000000	      0.00000000	      0.54705200	      0.00000000
      6.12300000	      0.00000000	      0.00000000	      0.00000000	      0.99183700	      0.01150000	     -0.46674600	    161.85180600	    920.99215600	     28.16236300	      1.03278100	      0.01150000	     -0.54512300	      0.00000000	      0.00000000	      0.00000000	      0.00000000	      0.51512900	      0.00000000
      6.12350000	      0.00000000	      0.00000000	      0.00000000	      0.99316900	      0.01150000	     -0.46683800	    161.96128600	    910.92757000	     27.82858900	      1.03162400	      0.01150000	     -0.54499700	      0.00000000	      0.00000000	      0.00000000	      0.00000000	      0.48330400	      0.00000000
      6.12400000	      0.00000000	      0.00000000	      0.00000000	      0.99450000	      0.01150000	     -0.46693000	    162.03257500	    900.87320000	     27.49887700	      1.03047000	      0.01150000	     -0.54487100	      0.00000000	      0.00000000	      0.00000000	      0.00000000	      0.45163600	      0.00000000
      6.12450000	      0.00000000	      0.00000000	      0.00000000	      0.99583200	      0.01150000	     -0.46702200	    162.06617300	    890.83119600	     27.17341300	      1.02931700	      0.01150000	     -0.54474500	      0.00000000	      0.00000000	      0.00000000	      0.00000000	      0.42017400	      0.00000000
      6.12500000	      0.00000000	      0.00000000	      0.00000000	      0.99716300	      0.01150000	     -0.46711300	    162.06256600	    880.80366700	     26.85240100	      1.02816700	      0.01150000	     -0.54461800	      0.00000000	      0.00000000	      0.00000000	      0.00000000	      0.38895500	      0.00000000
      6.12550000	      0.00000000	      0.00000000	      0.00000000	      0.99849500	      0.01150000	     -0.46720500	    162.02221200	    870.79266800	     26.53606100	      1.02701700	      0.01150000	     -0.54449000	      0.00000000	      0.00000000	      0.00000000	      0.00000000	      0.35799900	      0.00000000
      6.12600000	      0.00000000	      0.00000000	      0.00000000	      0.99982600	      0.01150000	     -0.46729700	    161.94553400	    860.80018500	     26.22461800	      1.02587000	      0.01150000	     -0.54436100	      0.00000000	      0.00000000	      0.00000000	      0.00000000	      0.32730700	      0.00000000
      6.12650000	      0.00000000	      0.00000000	      0.00000000	      1.00115800	      0.01150000	     -0.46738900	    161.83291600	    850.82811800	     25.91830500	      1.02472400	      0.01150000	     -0.54423200	      0.00000000	      0.00000000	      0.00000000	      0.00000000	      0.29686800	      0.00000000
      6.12700000	      0.00000000	      0.00000000	      0.00000000	      1.00248900	      0.01150000	     -0.46748000	    161.68471300	    840.87828200	     25.61734800	      1.02358000	      0.01150000	     -0.54410200	      0.00000000	      0.00000000	      0.00000000	      0.00000000	      0.26666400	      0.00000000
      6.12750000	      0.00000000	      0.00000000	      0.00000000	      1.00382100	      0.01150000	     -0.46757200	    161.50125300	    830.95240300	     25.32196100	      1.02243700	      0.01150000	     -0.54397100	      0.00000000	      0.00000000	      0.00000000	      0.00000000	      0.23667400	      0.00000000
      6.12800000	      0.00000000	      0.00000000	      0.00000000	      1.00515200	      0.01150000	     -0.46766400	    161.28283100	    821.05213200	     25.03232200	      1.02129600	      0.01150000	     -0.54384000	      0.00000000	      0.00000000	      0.00000000	      0.00000000	      0.20687000	      0.00000000
      6.12850000	      0.00000000	      0.00000000	      0.00000000	      1.00648300	      0.01150000	     -0.46775600	    161.02971600	    811.17905800	     24.74857300	      1.02015500	      0.01150000	     -0.54370800	      0.00000000	      0.00000000	      0.00000000	      0.00000000	      0.17722000	      0.00000000
      6.12900000	      0.00000000	      0.00000000	      0.00000000	      1.00781500	      0.01150000	     -0.46784700	    160.74215300	    801.33472300	     24.47082600	      1.01901500	      0.01150000	     -0.54357600	      0.00000000	      0.00000000	      0.00000000	      0.00000000	      0.14768500	      0.00000000
      6.12950000	      0.00000000	      0.00000000	      0.00000000	      1.00914600	      0.01150000	     -0.46793900	    160.42036200	    791.52065000	     24.19917900	      1.01787600	      0.01150000	     -0.54344300	      0.00000000	      0.00000000	      0.00000000	      0.00000000	      0.11822400	      0.00000000
      6.13000000	      0.00000000	      0.00000000	      0.00000000	      1.01047800	      0.01150000	     -0.46803100	    160.06454800	    781.73836100	     23.93372400	      1.01673600	      0.01150000	     -0.54331000	      0.00000000	      0.00000000	      0.00000000	      0.00000000	      0.08879700	      0.00000000
      6.13050000	      0.00000000	      0.00000000	      0.00000000	      1.01190500	      0.01150000	     -0.46812100	    159.67489800	    771.98940000	     23.67454000	      1.01559700	      0.01150000	     -0.54317700	      0.00000000	      0.00000000	      0.00000000	      0.00000000	      0.05936400	      0.00000000
      6.13100000	      0.00000000	      0.00000000	      0.00000000	      1.01333200	      0.01150000	     -0.46821100	    159.25159200	    762.27533700	     23.42168800	      1.01445700	      0.01150000	     -0.54304300	      0.00000000	      0.00000000	      0.00000000	      0.00000000	      0.02989100	      0.00000000
      6.13150000	      0.00000000	      0.00000000	      0.00000000	      1.01475800	      0.01150000	     -0.46830100	    158.79479600	    752.59776500	     23.17519900	      1.01331700	      0.01150000	     -0.54290900	      0.00000000	      0.00000000	      0.00000000	      0.00000000	      0.00035300	      0.00000000
      6.13200000	      0.00000000	      0.00000000	      0.00000000	      1.01618500	      0.01150000	     -0.46839100	    158.30466800	    742.95829300	     22.93507200	      1.01217700	      0.01150000	     -0.54277600	      0.00000000	      0.00000000	      0.00000000	      0.00000000	     -0.02926500	      0.00000000
      6.13250000	      0.00000000	      0.00000000	      0.00000000	      1.01761200	      0.01150000	     -0.46848000	    157.78136400	    733.35852600	     22.70126100	      1.01103600	      0.01150000	     -0.54264200	      0.00000000	      0.00000000	      0.00000000	      0.00000000	     -0.05897000	      0.00000000
      6.13300000	      0.00000000	      0.00000000	      0.00000000	      1.01903900	      0.01150000	     -0.46857000	    157.22504700	    723.80004300	     22.47367000	      1.00989500	      0.01150000	     -0.54250800	      0.00000000	      0.00000000	      0.00000000	      0.00000000	     -0.08875500	      0.00000000
      6.13350000	      0.00000000	      0.00000000	      0.00000000	      1.02046600	      0.01150000	     -0.46866000	    156.63589600	    714.28439500	     22.25215300	      1.00875500	      0.01150000	     -0.54237400	      0.00000000	      0.00000000	      0.00000000	      0.00000000	     -0.11861300	      0.00000000
      6.13400000	      0.00000000	      0.00000000	      0.00000000	      1.02189300	      0.01150000	     -0.46875000	    156.01410500	    704.81309600	     22.03652100	      1.00761500	      0.01150000	     -0.54224100	      0.00000000	      0.00000000	      0.00000000	      0.00000000	     -0.14854000	      0.00000000
      6.13450000	      0.00000000	      0.00000000	      0.00000000	      1.02332000	      0.01150000	     -0.46884000	    155.35987400	    695.38761800	     21.82656400	      1.00647500	      0.01150000	     -0.54210700	      0.00000000	      0.00000000	      0.00000000	      0.00000000	     -0.17853700	      0.00000000
